<svg width="609" height="92" viewBox="0 0 609 92" fill="none" xmlns="http://www.w3.org/2000/svg">
<g filter="url(#filter0_d_1_4540)">
<path d="M54.4 72.3H30.8L27.3 83H4L29.9 12.2H55.5L81.3 83H57.9L54.4 72.3ZM49 55.6L42.6 35.9L36.2 55.6H49ZM106.544 12.2V83H84.3438V12.2H106.544ZM172.963 36.4C172.096 35 170.863 33.9333 169.263 33.2C167.663 32.4 165.729 32 163.463 32C159.196 32 155.896 33.4 153.563 36.2C151.229 38.9333 150.063 42.7 150.063 47.5C150.063 53.0333 151.363 57.1667 153.962 59.9C156.563 62.6333 160.563 64 165.963 64C171.096 64 175.229 61.9333 178.363 57.8H160.663V42.1H196.763V64.3C193.696 69.5667 189.463 74.1 184.063 77.9C178.663 81.6333 171.829 83.5 163.563 83.5C156.229 83.5 149.829 82 144.363 79C138.963 75.9333 134.796 71.6667 131.863 66.2C128.996 60.7333 127.563 54.5 127.563 47.5C127.563 40.5 128.996 34.2667 131.863 28.8C134.796 23.3333 138.963 19.1 144.363 16.1C149.763 13.0333 156.096 11.5 163.363 11.5C172.629 11.5 180.163 13.7333 185.963 18.2C191.829 22.6667 195.296 28.7333 196.363 36.4H172.963ZM213.958 22.1C210.091 22.1 206.991 21.0667 204.658 19C202.324 16.9333 201.158 14.3333 201.158 11.2C201.158 8 202.324 5.36666 204.658 3.29999C206.991 1.16666 210.091 0.0999944 213.958 0.0999944C217.758 0.0999944 220.824 1.16666 223.158 3.29999C225.491 5.36666 226.658 8 226.658 11.2C226.658 14.3333 225.491 16.9333 223.158 19C220.824 21.0667 217.758 22.1 213.958 22.1ZM224.958 26.6V83H202.758V26.6H224.958ZM255.184 37C257.451 33.7333 260.218 31.1333 263.484 29.2C266.751 27.2 270.151 26.2 273.684 26.2V49.9H267.384C263.184 49.9 260.084 50.6333 258.084 52.1C256.151 53.5667 255.184 56.1667 255.184 59.9V83H232.984V26.6H255.184V37ZM299.864 9V83H277.664V9H299.864ZM340.391 22.6C339.191 22.4667 338.357 22.4 337.891 22.4C336.224 22.4 334.957 22.7333 334.091 23.4C333.224 24 332.624 25.0667 332.291 26.6H340.391V45.1H332.091V83H309.891V45.1H303.891V26.6H309.891C310.024 19.2667 312.324 13.6 316.791 9.6C321.324 5.53333 327.657 3.5 335.791 3.5C336.724 3.5 338.257 3.56666 340.391 3.7V22.6ZM366.567 37C368.834 33.7333 371.601 31.1333 374.867 29.2C378.134 27.2 381.534 26.2 385.067 26.2V49.9H378.767C374.567 49.9 371.467 50.6333 369.467 52.1C367.534 53.5667 366.567 56.1667 366.567 59.9V83H344.367V26.6H366.567V37ZM400.247 22.1C396.38 22.1 393.28 21.0667 390.947 19C388.614 16.9333 387.447 14.3333 387.447 11.2C387.447 8 388.614 5.36666 390.947 3.29999C393.28 1.16666 396.38 0.0999944 400.247 0.0999944C404.047 0.0999944 407.114 1.16666 409.447 3.29999C411.78 5.36666 412.947 8 412.947 11.2C412.947 14.3333 411.78 16.9333 409.447 19C407.114 21.0667 404.047 22.1 400.247 22.1ZM411.247 26.6V83H389.047V26.6H411.247ZM473.873 54.3C473.873 55.8333 473.773 57.3 473.573 58.7H437.873C438.207 63.5667 440.24 66 443.973 66C446.373 66 448.107 64.9 449.173 62.7H472.673C471.873 66.7 470.173 70.3 467.573 73.5C465.04 76.6333 461.807 79.1333 457.873 81C454.007 82.8 449.74 83.7 445.073 83.7C439.473 83.7 434.473 82.5333 430.073 80.2C425.74 77.8667 422.34 74.5333 419.873 70.2C417.473 65.8 416.273 60.6667 416.273 54.8C416.273 48.9333 417.473 43.8333 419.873 39.5C422.34 35.1 425.74 31.7333 430.073 29.4C434.473 27.0667 439.473 25.9 445.073 25.9C450.673 25.9 455.64 27.0667 459.973 29.4C464.373 31.6667 467.773 34.9333 470.173 39.2C472.64 43.4667 473.873 48.5 473.873 54.3ZM451.373 49C451.373 47.1333 450.773 45.7333 449.573 44.8C448.373 43.8 446.873 43.3 445.073 43.3C441.14 43.3 438.84 45.2 438.173 49H451.373ZM518.395 26.2C524.861 26.2 529.895 28.3667 533.495 32.7C537.161 37.0333 538.995 42.9 538.995 50.3V83H516.895V53.1C516.895 50.4333 516.161 48.3333 514.695 46.8C513.295 45.2 511.395 44.4 508.995 44.4C506.528 44.4 504.595 45.2 503.195 46.8C501.795 48.3333 501.095 50.4333 501.095 53.1V83H478.895V26.6H501.095V35.2C502.828 32.5333 505.128 30.3667 507.995 28.7C510.928 27.0333 514.395 26.2 518.395 26.2ZM543.621 54.8C543.621 48.8667 544.621 43.7333 546.621 39.4C548.688 35 551.488 31.6667 555.021 29.4C558.554 27.0667 562.521 25.9 566.921 25.9C570.588 25.9 573.721 26.6667 576.321 28.2C578.988 29.6667 581.021 31.7 582.421 34.3V9H604.621V83H582.421V75.3C581.021 77.9 578.988 79.9667 576.321 81.5C573.721 82.9667 570.588 83.7 566.921 83.7C562.521 83.7 558.554 82.5667 555.021 80.3C551.488 77.9667 548.688 74.6333 546.621 70.3C544.621 65.9 543.621 60.7333 543.621 54.8ZM582.521 54.8C582.521 51.8 581.754 49.4667 580.221 47.8C578.688 46.1333 576.721 45.3 574.321 45.3C571.921 45.3 569.954 46.1333 568.421 47.8C566.888 49.4667 566.121 51.8 566.121 54.8C566.121 57.8 566.888 60.1333 568.421 61.8C569.954 63.4667 571.921 64.3 574.321 64.3C576.721 64.3 578.688 63.4667 580.221 61.8C581.754 60.1333 582.521 57.8 582.521 54.8Z" fill="url(#paint0_linear_1_4540)"/>
</g>
<defs>
<filter id="filter0_d_1_4540" x="0" y="0.0999756" width="608.621" height="91.6" filterUnits="userSpaceOnUse" color-interpolation-filters="sRGB">
<feFlood flood-opacity="0" result="BackgroundImageFix"/>
<feColorMatrix in="SourceAlpha" type="matrix" values="0 0 0 0 0 0 0 0 0 0 0 0 0 0 0 0 0 0 127 0" result="hardAlpha"/>
<feOffset dy="4"/>
<feGaussianBlur stdDeviation="2"/>
<feComposite in2="hardAlpha" operator="out"/>
<feColorMatrix type="matrix" values="0 0 0 0 0 0 0 0 0 0 0 0 0 0 0 0 0 0 0.25 0"/>
<feBlend mode="normal" in2="BackgroundImageFix" result="effect1_dropShadow_1_4540"/>
<feBlend mode="normal" in="SourceGraphic" in2="effect1_dropShadow_1_4540" result="shape"/>
</filter>
<linearGradient id="paint0_linear_1_4540" x1="563.319" y1="114.462" x2="55.6577" y2="-84.3791" gradientUnits="userSpaceOnUse">
<stop stop-color="#8350CB"/>
<stop offset="0.472635" stop-color="#FE6283"/>
<stop offset="1" stop-color="#FFCED9"/>
</linearGradient>
</defs>
</svg>
