<svg width="183" height="31" viewBox="0 0 183 31" fill="none" xmlns="http://www.w3.org/2000/svg">
<g clip-path="url(#clip0_1_4521)">
<path d="M42.8755 22.4417L44.4043 19.1481C45.8151 20.0594 47.964 20.6769 49.9045 20.6769C52.0232 20.6769 52.8165 20.1171 52.8165 19.236C52.8165 16.6478 43.2571 19.2937 43.2571 12.9701C43.2571 9.97024 45.9632 7.8515 50.5823 7.8515C52.7588 7.8515 55.1712 8.35106 56.6724 9.23471L55.1436 12.5007C53.5847 11.617 52.0257 11.3233 50.5848 11.3233C48.5263 11.3233 47.6427 11.971 47.6427 12.7944C47.6427 15.5006 57.2021 12.8823 57.2021 19.118C57.2021 22.0601 54.4658 24.1487 49.7313 24.1487C47.0552 24.1487 44.3491 23.4132 42.878 22.4417H42.8755Z" fill="white"/>
<path d="M85.0547 8.08594V16.822C85.0547 21.4687 82.4365 24.1472 77.7019 24.1472C75.5254 24.1472 73.7305 23.5598 72.4954 21.9105C71.2905 23.4995 69.5533 24.1472 67.2588 24.1472C62.4942 24.1472 59.9336 21.4712 59.9336 16.822V8.08594H64.5225V16.468C64.5225 19.0863 65.3761 20.2913 67.3166 20.2913C69.2571 20.2913 70.1984 19.0863 70.1984 16.468V8.08594H74.7874V16.468C74.7874 19.0863 75.7288 20.2913 77.6693 20.2913C79.6098 20.2913 80.4633 19.0863 80.4633 16.468V8.08594H85.0522H85.0547Z" fill="white"/>
<path d="M89.1714 8.08594H93.7603V23.9112H89.1714V8.08594Z" fill="white"/>
<path d="M115.262 16.0001C115.262 20.9706 111.82 24.1487 107.379 24.1487C105.408 24.1487 103.789 23.5312 102.614 22.2359V29.6188H98.0255V8.08748H102.409V9.91C103.556 8.52679 105.263 7.8515 107.379 7.8515C111.82 7.8515 115.262 11.0296 115.262 16.0001ZM110.612 16.0001C110.612 13.2638 108.878 11.617 106.583 11.617C104.289 11.617 102.554 13.2638 102.554 16.0001C102.554 18.7364 104.289 20.3832 106.583 20.3832C108.878 20.3832 110.612 18.7364 110.612 16.0001Z" fill="white"/>
<path d="M130.261 18.9423L132.701 21.5907C131.23 23.2676 129.023 24.1487 126.172 24.1487C120.702 24.1487 117.142 20.707 117.142 16.0001C117.142 11.2932 120.732 7.8515 125.614 7.8515C130.085 7.8515 133.763 10.7936 133.791 15.852L122.082 18.1164C122.76 19.6753 124.229 20.4686 126.29 20.4686C127.967 20.4686 129.172 19.969 130.261 18.9398V18.9423ZM121.643 15.5307L129.35 14.0295C128.908 12.4128 127.527 11.3233 125.614 11.3233C123.32 11.3233 121.731 12.8521 121.643 15.5307Z" fill="white"/>
<path d="M152.822 8.08845V21.2653C152.822 27.1471 149.734 29.8558 144.204 29.8558C141.292 29.8558 138.468 29.1202 136.645 27.6793L138.468 24.3857C139.791 25.4727 141.849 26.1505 143.822 26.1505C146.91 26.1505 148.235 24.7095 148.235 21.8553V21.3256C147.03 22.5305 145.381 23.1481 143.559 23.1481C139.587 23.1481 136.793 20.9415 136.793 16.0287V8.08594H141.382V15.3509C141.382 18.027 142.559 19.2043 144.588 19.2043C146.616 19.2043 148.235 17.8512 148.235 14.9392V8.08594H152.824L152.822 8.08845Z" fill="white"/>
<path d="M173.146 8.08748V23.9128H168.762V22.0903C167.615 23.4735 165.938 24.1487 163.82 24.1487C159.349 24.1487 155.907 20.9706 155.907 16.0001C155.907 11.0296 159.349 7.8515 163.82 7.8515C165.76 7.8515 167.409 8.46905 168.557 9.76439V8.08748H173.146ZM168.644 16.0001C168.644 13.2638 166.88 11.617 164.615 11.617C162.351 11.617 160.556 13.2638 160.556 16.0001C160.556 18.7364 162.321 20.3832 164.615 20.3832C166.91 20.3832 168.644 18.7364 168.644 16.0001Z" fill="url(#paint0_linear_1_4521)"/>
<path d="M176.821 3.32368C176.821 1.88273 177.968 0.765625 179.675 0.765625C181.382 0.765625 182.529 1.825 182.529 3.23582C182.529 4.76463 181.382 5.88174 179.675 5.88174C177.968 5.88174 176.821 4.76463 176.821 3.32368ZM177.38 8.08834H181.969V23.9136H177.38V8.08834Z" fill="url(#paint1_linear_1_4521)"/>
<path d="M33.65 3.16026C30.8032 0.182972 26.6134 -0.690633 22.9784 0.539442C21.5074 1.03649 20.1944 1.91763 19.0949 3.01717L14.8373 7.27473C14.28 7.83203 13.9236 8.5751 13.911 9.36335C13.896 10.3198 13.5169 11.2712 12.7663 11.9892C11.3655 13.3297 9.09363 13.3498 7.67277 12.0319C6.11635 10.5909 6.0812 8.15838 7.56734 6.67225C8.26522 5.97437 9.17146 5.61288 10.0877 5.58777C10.7153 5.5702 11.3228 5.34929 11.7672 4.90496L11.9153 4.75684C13.6801 2.99457 12.4098 -0.0705747 9.91703 0.0047361C7.40416 0.0800469 4.9164 1.07666 2.99849 2.99206C-0.992985 6.98353 -0.992985 13.4577 2.99849 17.4492L3.78674 18.2375L6.04857 20.4993C8.08196 22.5327 11.3781 22.5327 13.4115 20.4993L21.8412 12.0695C22.4939 11.4168 22.8579 10.5432 22.9157 9.62192C22.9709 8.72823 23.3475 7.85212 24.0453 7.17934C25.4436 5.83128 27.723 5.80868 29.1464 7.12913C30.7028 8.57008 30.7379 11.0026 29.2518 12.4887C28.6368 13.1038 27.8611 13.4577 27.0578 13.5506C26.1816 13.6536 25.3532 13.995 24.7307 14.62L15.3444 24.0063C13.7453 25.6054 13.7453 28.2011 15.3444 29.8002C16.9435 31.3993 19.5392 31.3993 21.1383 29.8002L32.6985 18.24L33.3412 17.5973C37.2925 13.6435 37.5134 7.20193 33.65 3.16277V3.16026Z" fill="url(#paint2_linear_1_4521)"/>
<path d="M26.5434 11.8426C27.5527 11.8426 28.3709 11.0244 28.3709 10.015C28.3709 9.00572 27.5527 8.1875 26.5434 8.1875C25.534 8.1875 24.7158 9.00572 24.7158 10.015C24.7158 11.0244 25.534 11.8426 26.5434 11.8426Z" fill="url(#paint3_linear_1_4521)"/>
<path d="M10.3338 11.2175C11.3431 11.2175 12.1613 10.3993 12.1613 9.38998C12.1613 8.38066 11.3431 7.56244 10.3338 7.56244C9.32444 7.56244 8.50623 8.38066 8.50623 9.38998C8.50623 10.3993 9.32444 11.2175 10.3338 11.2175Z" fill="url(#paint4_linear_1_4521)"/>
<path d="M27.4796 20.4531C27.4796 20.4531 26.847 26.4253 31.1246 29.0185C31.8752 29.4754 31.6669 30.6075 30.8008 30.7682C27.57 31.3657 22.3811 31.2301 19.9736 25.2128" fill="url(#paint5_linear_1_4521)"/>
<path d="M91.4661 6.27211C93.0924 6.27211 94.4108 4.95375 94.4108 3.32746C94.4108 1.70118 93.0924 0.382812 91.4661 0.382812C89.8399 0.382812 88.5215 1.70118 88.5215 3.32746C88.5215 4.95375 89.8399 6.27211 91.4661 6.27211Z" fill="url(#paint6_linear_1_4521)"/>
</g>
<defs>
<linearGradient id="paint0_linear_1_4521" x1="158.658" y1="26.521" x2="173.879" y2="5.65493" gradientUnits="userSpaceOnUse">
<stop stop-color="#8350CB"/>
<stop offset="1" stop-color="#FE6283"/>
</linearGradient>
<linearGradient id="paint1_linear_1_4521" x1="165.853" y1="31.7711" x2="181.073" y2="10.9049" gradientUnits="userSpaceOnUse">
<stop stop-color="#8350CB"/>
<stop offset="1" stop-color="#FE6283"/>
</linearGradient>
<linearGradient id="paint2_linear_1_4521" x1="2.76251" y1="26.7601" x2="26.5482" y2="1.34025" gradientUnits="userSpaceOnUse">
<stop stop-color="#8350CB"/>
<stop offset="1" stop-color="#FE6283"/>
</linearGradient>
<linearGradient id="paint3_linear_1_4521" x1="7.0906" y1="30.8058" x2="30.8737" y2="5.38594" gradientUnits="userSpaceOnUse">
<stop stop-color="#8350CB"/>
<stop offset="1" stop-color="#FE6283"/>
</linearGradient>
<linearGradient id="paint4_linear_1_4521" x1="-1.86658" y1="22.4288" x2="21.9191" y2="-2.99111" gradientUnits="userSpaceOnUse">
<stop stop-color="#8350CB"/>
<stop offset="1" stop-color="#FE6283"/>
</linearGradient>
<linearGradient id="paint5_linear_1_4521" x1="15.7939" y1="38.3871" x2="39.5118" y2="13.035" gradientUnits="userSpaceOnUse">
<stop stop-color="#8350CB"/>
<stop offset="1" stop-color="#FE6283"/>
</linearGradient>
<linearGradient id="paint6_linear_1_4521" x1="83.6313" y1="15.2868" x2="98.1412" y2="-6.86209" gradientUnits="userSpaceOnUse">
<stop stop-color="#8350CB"/>
<stop offset="1" stop-color="#FE6283"/>
</linearGradient>
<clipPath id="clip0_1_4521">
<rect width="183" height="31" fill="white"/>
</clipPath>
</defs>
</svg>
