<svg width="24" height="24" viewBox="0 0 24 24" fill="none" xmlns="http://www.w3.org/2000/svg">
<path d="M19.7156 5.28188L12.2156 3.03188C12.1037 2.99827 11.9854 2.9913 11.8702 3.01153C11.7551 3.03176 11.6462 3.07863 11.5524 3.1484C11.4586 3.21816 11.3824 3.3089 11.3299 3.41335C11.2774 3.51781 11.25 3.63309 11.25 3.75V13.8994C10.4819 13.2124 9.5013 12.8098 8.47206 12.759C7.44282 12.7081 6.4273 13.0121 5.59523 13.62C4.76317 14.2279 4.16496 15.103 3.9006 16.0991C3.63624 17.0951 3.72173 18.1516 4.14279 19.0922C4.56386 20.0327 5.29498 20.8003 6.21396 21.2665C7.13295 21.7328 8.18412 21.8695 9.1918 21.6538C10.1995 21.4382 11.1026 20.8832 11.7502 20.0816C12.3979 19.2801 12.7508 18.2805 12.75 17.25V9.25782L19.2844 11.2181C19.3964 11.2517 19.5146 11.2587 19.6298 11.2385C19.7449 11.2182 19.8538 11.1714 19.9476 11.1016C20.0414 11.0318 20.1176 10.9411 20.1701 10.8367C20.2226 10.7322 20.25 10.6169 20.25 10.5V6C20.25 5.83876 20.198 5.68183 20.1017 5.55248C20.0054 5.42312 19.8701 5.32823 19.7156 5.28188Z" fill="#E9F2FF"/>
</svg>
