<svg width="20" height="20" viewBox="0 0 20 20" fill="none" xmlns="http://www.w3.org/2000/svg">
<path d="M18.5797 7.28095L11.0242 2.16141C10.869 2.05617 10.6866 2 10.5 2C10.3134 2 10.131 2.05617 9.97583 2.16141L2.42028 7.28095C2.29079 7.36876 2.18467 7.48774 2.11134 7.6273C2.03802 7.76686 1.99977 7.92267 2 8.08088V16.4001C2 16.8245 2.16584 17.2314 2.46104 17.5314C2.75623 17.8314 3.1566 18 3.57407 18H17.4259C17.8434 18 18.2438 17.8314 18.539 17.5314C18.8342 17.2314 19 16.8245 19 16.4001V8.08088C19.0002 7.92267 18.962 7.76686 18.8887 7.6273C18.8153 7.48774 18.7092 7.36876 18.5797 7.28095ZM10.5 4.11484L16.3918 8.10728L11.5712 11.6006H9.42884L4.60824 8.10728L10.5 4.11484ZM3.88889 16.0802V9.94392L8.57806 13.342C8.73883 13.4586 8.93151 13.5209 9.12898 13.5204H11.8757C12.0732 13.5209 12.2659 13.4586 12.4267 13.342L17.1111 9.94392V16.0802H3.88889Z" fill="#E9F2FF"/>
</svg>
