<svg width="178" height="24" viewBox="0 0 178 24" fill="none" xmlns="http://www.w3.org/2000/svg">
<path d="M18.8 12.2083C18.8 11.5583 18.7417 10.9333 18.6333 10.3333H10V13.8833H14.9333C14.7167 15.025 14.0667 15.9916 13.0917 16.6416V18.95H16.0667C17.8 17.35 18.8 15 18.8 12.2083Z" fill="#4285F4"/>
<path d="M9.99998 21.1667C12.475 21.1667 14.55 20.35 16.0667 18.95L13.0917 16.6417C12.275 17.1917 11.2333 17.525 9.99998 17.525C7.61665 17.525 5.59165 15.9167 4.86665 13.75H1.81665V16.1167C3.32498 19.1083 6.41665 21.1667 9.99998 21.1667Z" fill="#34A853"/>
<path d="M4.86665 13.7417C4.68331 13.1917 4.57498 12.6083 4.57498 12C4.57498 11.3917 4.68331 10.8083 4.86665 10.2583V7.89166H1.81665C1.19165 9.125 0.833313 10.5167 0.833313 12C0.833313 13.4833 1.19165 14.875 1.81665 16.1083L4.19165 14.2583L4.86665 13.7417Z" fill="#FBBC05"/>
<path d="M9.99998 6.48334C11.35 6.48334 12.55 6.95001 13.5083 7.85001L16.1333 5.22501C14.5417 3.74168 12.475 2.83334 9.99998 2.83334C6.41665 2.83334 3.32498 4.89168 1.81665 7.89168L4.86665 10.2583C5.59165 8.09168 7.61665 6.48334 9.99998 6.48334Z" fill="#EA4335"/>
<path d="M33.056 18.112C32.2347 18.112 31.4987 17.9787 30.848 17.712C30.1973 17.4453 29.6747 17.0507 29.28 16.528C28.896 16.0053 28.6933 15.376 28.672 14.64H31.584C31.6267 15.056 31.7707 15.376 32.016 15.6C32.2613 15.8133 32.5813 15.92 32.976 15.92C33.3813 15.92 33.7013 15.8293 33.936 15.648C34.1707 15.456 34.288 15.1947 34.288 14.864C34.288 14.5867 34.192 14.3573 34 14.176C33.8187 13.9947 33.5893 13.8453 33.312 13.728C33.0453 13.6107 32.6613 13.4773 32.16 13.328C31.4347 13.104 30.8427 12.88 30.384 12.656C29.9253 12.432 29.5307 12.1013 29.2 11.664C28.8693 11.2267 28.704 10.656 28.704 9.952C28.704 8.90667 29.0827 8.09067 29.84 7.504C30.5973 6.90667 31.584 6.608 32.8 6.608C34.0373 6.608 35.0347 6.90667 35.792 7.504C36.5493 8.09067 36.9547 8.912 37.008 9.968H34.048C34.0267 9.60533 33.8933 9.32267 33.648 9.12C33.4027 8.90667 33.088 8.8 32.704 8.8C32.3733 8.8 32.1067 8.89067 31.904 9.072C31.7013 9.24267 31.6 9.49333 31.6 9.824C31.6 10.1867 31.7707 10.4693 32.112 10.672C32.4533 10.8747 32.9867 11.0933 33.712 11.328C34.4373 11.5733 35.024 11.808 35.472 12.032C35.9307 12.256 36.3253 12.5813 36.656 13.008C36.9867 13.4347 37.152 13.984 37.152 14.656C37.152 15.296 36.9867 15.8773 36.656 16.4C36.336 16.9227 35.8667 17.3387 35.248 17.648C34.6293 17.9573 33.8987 18.112 33.056 18.112ZM39.8918 8.144C39.4118 8.144 39.0171 8.00533 38.7078 7.728C38.4091 7.44 38.2598 7.088 38.2598 6.672C38.2598 6.24533 38.4091 5.89333 38.7078 5.616C39.0171 5.328 39.4118 5.184 39.8918 5.184C40.3611 5.184 40.7451 5.328 41.0438 5.616C41.3531 5.89333 41.5078 6.24533 41.5078 6.672C41.5078 7.088 41.3531 7.44 41.0438 7.728C40.7451 8.00533 40.3611 8.144 39.8918 8.144ZM41.2518 9.072V18H38.5158V9.072H41.2518ZM46.3065 8.944C46.9358 8.944 47.4852 9.072 47.9545 9.328C48.4345 9.584 48.8025 9.92 49.0585 10.336V9.072H51.7945V17.984C51.7945 18.8053 51.6292 19.5467 51.2985 20.208C50.9785 20.88 50.4825 21.4133 49.8105 21.808C49.1492 22.2027 48.3225 22.4 47.3305 22.4C46.0078 22.4 44.9358 22.0853 44.1145 21.456C43.2932 20.8373 42.8238 19.9947 42.7065 18.928H45.4105C45.4958 19.2693 45.6985 19.536 46.0185 19.728C46.3385 19.9307 46.7332 20.032 47.2025 20.032C47.7678 20.032 48.2158 19.8667 48.5465 19.536C48.8878 19.216 49.0585 18.6987 49.0585 17.984V16.72C48.7918 17.136 48.4238 17.4773 47.9545 17.744C47.4852 18 46.9358 18.128 46.3065 18.128C45.5705 18.128 44.9038 17.9413 44.3065 17.568C43.7092 17.184 43.2345 16.6453 42.8825 15.952C42.5412 15.248 42.3705 14.4373 42.3705 13.52C42.3705 12.6027 42.5412 11.7973 42.8825 11.104C43.2345 10.4107 43.7092 9.87733 44.3065 9.504C44.9038 9.13067 45.5705 8.944 46.3065 8.944ZM49.0585 13.536C49.0585 12.8533 48.8665 12.3147 48.4825 11.92C48.1092 11.5253 47.6505 11.328 47.1065 11.328C46.5625 11.328 46.0985 11.5253 45.7145 11.92C45.3412 12.304 45.1545 12.8373 45.1545 13.52C45.1545 14.2027 45.3412 14.7467 45.7145 15.152C46.0985 15.5467 46.5625 15.744 47.1065 15.744C47.6505 15.744 48.1092 15.5467 48.4825 15.152C48.8665 14.7573 49.0585 14.2187 49.0585 13.536ZM58.8939 8.976C59.9392 8.976 60.7712 9.31733 61.3899 10C62.0192 10.672 62.3339 11.6 62.3339 12.784V18H59.6139V13.152C59.6139 12.5547 59.4592 12.0907 59.1499 11.76C58.8405 11.4293 58.4245 11.264 57.9019 11.264C57.3792 11.264 56.9632 11.4293 56.6539 11.76C56.3445 12.0907 56.1899 12.5547 56.1899 13.152V18H53.4539V9.072H56.1899V10.256C56.4672 9.86133 56.8405 9.552 57.3099 9.328C57.7792 9.09333 58.3072 8.976 58.8939 8.976ZM68.3618 8.144C67.8818 8.144 67.4871 8.00533 67.1778 7.728C66.8791 7.44 66.7298 7.088 66.7298 6.672C66.7298 6.24533 66.8791 5.89333 67.1778 5.616C67.4871 5.328 67.8818 5.184 68.3618 5.184C68.8311 5.184 69.2151 5.328 69.5138 5.616C69.8231 5.89333 69.9778 6.24533 69.9778 6.672C69.9778 7.088 69.8231 7.44 69.5138 7.728C69.2151 8.00533 68.8311 8.144 68.3618 8.144ZM69.7218 9.072V18H66.9858V9.072H69.7218ZM76.8245 8.976C77.8698 8.976 78.7018 9.31733 79.3205 10C79.9498 10.672 80.2645 11.6 80.2645 12.784V18H77.5445V13.152C77.5445 12.5547 77.3898 12.0907 77.0805 11.76C76.7712 11.4293 76.3552 11.264 75.8325 11.264C75.3098 11.264 74.8938 11.4293 74.5845 11.76C74.2752 12.0907 74.1205 12.5547 74.1205 13.152V18H71.3845V9.072H74.1205V10.256C74.3978 9.86133 74.7712 9.552 75.2405 9.328C75.7098 9.09333 76.2378 8.976 76.8245 8.976ZM97.7324 9.072L95.3164 18H92.2924L90.8844 12.208L89.4284 18H86.4204L83.9884 9.072H86.7244L87.9884 15.456L89.4924 9.072H92.3884L93.9084 15.424L95.1564 9.072H97.7324ZM99.8318 8.144C99.3518 8.144 98.9571 8.00533 98.6478 7.728C98.3491 7.44 98.1998 7.088 98.1998 6.672C98.1998 6.24533 98.3491 5.89333 98.6478 5.616C98.9571 5.328 99.3518 5.184 99.8318 5.184C100.301 5.184 100.685 5.328 100.984 5.616C101.293 5.89333 101.448 6.24533 101.448 6.672C101.448 7.088 101.293 7.44 100.984 7.728C100.685 8.00533 100.301 8.144 99.8318 8.144ZM101.192 9.072V18H98.4558V9.072H101.192ZM107.831 15.68V18H106.439C105.447 18 104.673 17.76 104.119 17.28C103.564 16.7893 103.287 15.9947 103.287 14.896V11.344H102.199V9.072H103.287V6.896H106.023V9.072H107.815V11.344H106.023V14.928C106.023 15.1947 106.087 15.3867 106.215 15.504C106.343 15.6213 106.556 15.68 106.855 15.68H107.831ZM114.523 8.976C115.547 8.976 116.368 9.31733 116.987 10C117.605 10.672 117.915 11.6 117.915 12.784V18H115.195V13.152C115.195 12.5547 115.04 12.0907 114.731 11.76C114.421 11.4293 114.005 11.264 113.483 11.264C112.96 11.264 112.544 11.4293 112.235 11.76C111.925 12.0907 111.771 12.5547 111.771 13.152V18H109.035V6.16H111.771V10.272C112.048 9.87733 112.427 9.56267 112.907 9.328C113.387 9.09333 113.925 8.976 114.523 8.976ZM130.022 10.32C129.82 9.94667 129.526 9.664 129.142 9.472C128.769 9.26933 128.326 9.168 127.814 9.168C126.929 9.168 126.22 9.46133 125.686 10.048C125.153 10.624 124.886 11.3973 124.886 12.368C124.886 13.4027 125.164 14.2133 125.718 14.8C126.284 15.376 127.057 15.664 128.038 15.664C128.71 15.664 129.276 15.4933 129.734 15.152C130.204 14.8107 130.545 14.32 130.758 13.68H127.286V11.664H133.238V14.208C133.036 14.8907 132.689 15.5253 132.198 16.112C131.718 16.6987 131.105 17.1733 130.358 17.536C129.612 17.8987 128.769 18.08 127.83 18.08C126.721 18.08 125.729 17.84 124.854 17.36C123.99 16.8693 123.313 16.192 122.822 15.328C122.342 14.464 122.102 13.4773 122.102 12.368C122.102 11.2587 122.342 10.272 122.822 9.408C123.313 8.53333 123.99 7.856 124.854 7.376C125.718 6.88533 126.705 6.64 127.814 6.64C129.158 6.64 130.289 6.96533 131.206 7.616C132.134 8.26667 132.748 9.168 133.046 10.32H130.022ZM138.498 18.128C137.623 18.128 136.834 17.9413 136.13 17.568C135.437 17.1947 134.887 16.6613 134.482 15.968C134.087 15.2747 133.89 14.464 133.89 13.536C133.89 12.6187 134.093 11.8133 134.498 11.12C134.903 10.416 135.458 9.87733 136.162 9.504C136.866 9.13067 137.655 8.944 138.53 8.944C139.405 8.944 140.194 9.13067 140.898 9.504C141.602 9.87733 142.157 10.416 142.562 11.12C142.967 11.8133 143.17 12.6187 143.17 13.536C143.17 14.4533 142.962 15.264 142.546 15.968C142.141 16.6613 141.581 17.1947 140.866 17.568C140.162 17.9413 139.373 18.128 138.498 18.128ZM138.498 15.76C139.021 15.76 139.463 15.568 139.826 15.184C140.199 14.8 140.386 14.2507 140.386 13.536C140.386 12.8213 140.205 12.272 139.842 11.888C139.49 11.504 139.053 11.312 138.53 11.312C137.997 11.312 137.554 11.504 137.202 11.888C136.85 12.2613 136.674 12.8107 136.674 13.536C136.674 14.2507 136.845 14.8 137.186 15.184C137.538 15.568 137.975 15.76 138.498 15.76ZM148.365 18.128C147.491 18.128 146.701 17.9413 145.997 17.568C145.304 17.1947 144.755 16.6613 144.349 15.968C143.955 15.2747 143.757 14.464 143.757 13.536C143.757 12.6187 143.96 11.8133 144.365 11.12C144.771 10.416 145.325 9.87733 146.029 9.504C146.733 9.13067 147.523 8.944 148.397 8.944C149.272 8.944 150.061 9.13067 150.765 9.504C151.469 9.87733 152.024 10.416 152.429 11.12C152.835 11.8133 153.037 12.6187 153.037 13.536C153.037 14.4533 152.829 15.264 152.413 15.968C152.008 16.6613 151.448 17.1947 150.733 17.568C150.029 17.9413 149.24 18.128 148.365 18.128ZM148.365 15.76C148.888 15.76 149.331 15.568 149.693 15.184C150.067 14.8 150.253 14.2507 150.253 13.536C150.253 12.8213 150.072 12.272 149.709 11.888C149.357 11.504 148.92 11.312 148.397 11.312C147.864 11.312 147.421 11.504 147.069 11.888C146.717 12.2613 146.541 12.8107 146.541 13.536C146.541 14.2507 146.712 14.8 147.053 15.184C147.405 15.568 147.843 15.76 148.365 15.76ZM157.561 8.944C158.19 8.944 158.74 9.072 159.209 9.328C159.689 9.584 160.057 9.92 160.313 10.336V9.072H163.049V17.984C163.049 18.8053 162.884 19.5467 162.553 20.208C162.233 20.88 161.737 21.4133 161.065 21.808C160.404 22.2027 159.577 22.4 158.585 22.4C157.262 22.4 156.19 22.0853 155.369 21.456C154.548 20.8373 154.078 19.9947 153.961 18.928H156.665C156.75 19.2693 156.953 19.536 157.273 19.728C157.593 19.9307 157.988 20.032 158.457 20.032C159.022 20.032 159.47 19.8667 159.801 19.536C160.142 19.216 160.313 18.6987 160.313 17.984V16.72C160.046 17.136 159.678 17.4773 159.209 17.744C158.74 18 158.19 18.128 157.561 18.128C156.825 18.128 156.158 17.9413 155.561 17.568C154.964 17.184 154.489 16.6453 154.137 15.952C153.796 15.248 153.625 14.4373 153.625 13.52C153.625 12.6027 153.796 11.7973 154.137 11.104C154.489 10.4107 154.964 9.87733 155.561 9.504C156.158 9.13067 156.825 8.944 157.561 8.944ZM160.313 13.536C160.313 12.8533 160.121 12.3147 159.737 11.92C159.364 11.5253 158.905 11.328 158.361 11.328C157.817 11.328 157.353 11.5253 156.969 11.92C156.596 12.304 156.409 12.8373 156.409 13.52C156.409 14.2027 156.596 14.7467 156.969 15.152C157.353 15.5467 157.817 15.744 158.361 15.744C158.905 15.744 159.364 15.5467 159.737 15.152C160.121 14.7573 160.313 14.2187 160.313 13.536ZM167.444 6.16V18H164.708V6.16H167.444ZM177.523 13.392C177.523 13.648 177.507 13.9147 177.475 14.192H171.283C171.326 14.7467 171.502 15.1733 171.811 15.472C172.131 15.76 172.52 15.904 172.979 15.904C173.662 15.904 174.136 15.616 174.403 15.04H177.315C177.166 15.6267 176.894 16.1547 176.499 16.624C176.115 17.0933 175.63 17.4613 175.043 17.728C174.456 17.9947 173.8 18.128 173.075 18.128C172.2 18.128 171.422 17.9413 170.739 17.568C170.056 17.1947 169.523 16.6613 169.139 15.968C168.755 15.2747 168.563 14.464 168.563 13.536C168.563 12.608 168.75 11.7973 169.123 11.104C169.507 10.4107 170.04 9.87733 170.723 9.504C171.406 9.13067 172.19 8.944 173.075 8.944C173.939 8.944 174.707 9.12533 175.379 9.488C176.051 9.85067 176.574 10.368 176.947 11.04C177.331 11.712 177.523 12.496 177.523 13.392ZM174.723 12.672C174.723 12.2027 174.563 11.8293 174.243 11.552C173.923 11.2747 173.523 11.136 173.043 11.136C172.584 11.136 172.195 11.2693 171.875 11.536C171.566 11.8027 171.374 12.1813 171.299 12.672H174.723Z" fill="#E9F2FF"/>
</svg>
