<svg width="24" height="24" viewBox="0 0 24 24" fill="none" xmlns="http://www.w3.org/2000/svg">
<path d="M23.1972 16.2891C23.1977 16.2847 23.1977 16.2803 23.1972 16.2759L21.6606 8.385C21.6606 8.37938 21.6606 8.37375 21.6606 8.36813C21.4234 7.07255 20.7397 5.90107 19.7283 5.05735C18.7169 4.21364 17.4418 3.75105 16.1247 3.75H7.8644C6.5436 3.74949 5.26491 4.21471 4.25323 5.06384C3.24155 5.91297 2.56166 7.09162 2.33315 8.3925L0.804085 16.2759C0.803633 16.2803 0.803633 16.2847 0.804085 16.2891C0.679625 16.9958 0.783655 17.7238 1.10107 18.3673C1.41849 19.0109 1.93277 19.5365 2.56924 19.8679C3.20572 20.1993 3.93126 20.3193 4.64052 20.2103C5.34978 20.1013 6.00585 19.7691 6.51346 19.2619L6.54627 19.2272L10.2672 15H13.736L17.4588 19.2272C17.4691 19.2394 17.4803 19.2506 17.4916 19.2619C18.1242 19.8932 18.981 20.2484 19.8747 20.25C20.3673 20.2497 20.8539 20.1415 21.3003 19.9331C21.7467 19.7247 22.142 19.4211 22.4586 19.0436C22.7751 18.6661 23.0052 18.2239 23.1326 17.7481C23.2601 17.2722 23.2818 16.7742 23.1963 16.2891H23.1972ZM9.74971 10.5H8.99971V11.25C8.99971 11.4489 8.92069 11.6397 8.78004 11.7803C8.63939 11.921 8.44862 12 8.24971 12C8.0508 12 7.86003 11.921 7.71938 11.7803C7.57873 11.6397 7.49971 11.4489 7.49971 11.25V10.5H6.74971C6.5508 10.5 6.36003 10.421 6.21938 10.2803C6.07873 10.1397 5.99971 9.94891 5.99971 9.75C5.99971 9.55109 6.07873 9.36032 6.21938 9.21967C6.36003 9.07902 6.5508 9 6.74971 9H7.49971V8.25C7.49971 8.05109 7.57873 7.86032 7.71938 7.71967C7.86003 7.57902 8.0508 7.5 8.24971 7.5C8.44862 7.5 8.63939 7.57902 8.78004 7.71967C8.92069 7.86032 8.99971 8.05109 8.99971 8.25V9H9.74971C9.94862 9 10.1394 9.07902 10.28 9.21967C10.4207 9.36032 10.4997 9.55109 10.4997 9.75C10.4997 9.94891 10.4207 10.1397 10.28 10.2803C10.1394 10.421 9.94862 10.5 9.74971 10.5ZM13.4997 9.75C13.4997 9.55109 13.5787 9.36032 13.7194 9.21967C13.86 9.07902 14.0508 9 14.2497 9H16.4997C16.6986 9 16.8894 9.07902 17.03 9.21967C17.1707 9.36032 17.2497 9.55109 17.2497 9.75C17.2497 9.94891 17.1707 10.1397 17.03 10.2803C16.8894 10.421 16.6986 10.5 16.4997 10.5H14.2497C14.0508 10.5 13.86 10.421 13.7194 10.2803C13.5787 10.1397 13.4997 9.94891 13.4997 9.75ZM21.4094 17.9503C21.2689 18.1526 21.0897 18.3249 20.8821 18.4574C20.6745 18.5898 20.4426 18.6797 20.2 18.7219C19.9065 18.7732 19.605 18.7542 19.3203 18.6663C19.0356 18.5785 18.7758 18.4243 18.5622 18.2166L15.731 15H16.1247C17.0822 15.0001 18.0239 14.7558 18.8606 14.2902C19.6973 13.8246 20.4013 13.1531 20.906 12.3394L21.7253 16.5581C21.7671 16.7995 21.7606 17.0468 21.7064 17.2858C21.6522 17.5247 21.5512 17.7505 21.4094 17.9503Z" fill="#E9F2FF"/>
</svg>
