<svg width="22" height="21" viewBox="0 0 22 21" fill="none" xmlns="http://www.w3.org/2000/svg">
<path d="M10.8246 2.05603C9.20762 2.05603 7.69216 2.46199 6.35938 3.17235C7.5907 3.29412 9.07233 3.38208 10.8246 3.38208C12.5768 3.38208 14.0585 3.29412 15.2898 3.17235C13.957 2.46199 12.4415 2.05603 10.8246 2.05603Z" fill="#FC6896"/>
<path d="M18.1386 5.50757C15.8113 5.98112 12.9563 6.08939 10.8252 6.08939C8.69403 6.08939 5.83902 5.98112 3.5117 5.50757C2.16538 7.1448 1.35352 9.24208 1.35352 11.5288C1.35352 16.7585 5.59548 21.0005 10.8252 21.0005C16.0616 21.0005 20.2968 16.7585 20.2968 11.5288C20.2968 9.24208 19.485 7.1448 18.1386 5.50757ZM5.41957 8.14607C5.41957 7.40189 6.02847 6.79298 6.77266 6.79298C7.51685 6.79298 8.12576 7.40189 8.12576 8.14607C8.12576 8.8903 7.51685 9.49917 6.77266 9.49917C6.02847 9.49917 5.41957 8.8903 5.41957 8.14607ZM14.0929 14.6274C13.3554 15.6287 12.1715 16.2782 10.8319 16.2782C9.48562 16.2782 8.30166 15.6287 7.56421 14.6274C7.24625 14.2012 7.58453 13.5923 8.11221 13.5923H8.11898C8.33548 13.5923 8.54521 13.6802 8.67376 13.8494C9.16085 14.4989 9.95244 14.9251 10.8319 14.9251C11.7114 14.9251 12.4963 14.4989 12.9901 13.8494C13.4997 13.1789 14.615 13.9447 14.0929 14.6274ZM14.8642 9.49917C14.1132 9.49917 13.5111 8.8903 13.5111 8.14607C13.5111 7.40189 14.1132 6.79298 14.8642 6.79298C15.6084 6.79298 16.2173 7.40189 16.2173 8.14607C16.2173 8.8903 15.6084 9.49917 14.8642 9.49917Z" fill="#FC6896"/>
<path d="M10.8247 0C9.71521 0 0 0.0744133 0 2.70619C0 5.33796 9.71521 5.41237 10.8247 5.41237C11.9343 5.41237 21.6495 5.33796 21.6495 2.70619C21.6495 0.0744133 11.9343 0 10.8247 0ZM10.8247 4.05928C5.26355 4.05928 2.09728 3.22037 1.43428 2.70619C2.09728 2.192 5.26355 1.35309 10.8247 1.35309C16.386 1.35309 19.559 2.192 20.2152 2.70619C19.559 3.22037 16.386 4.05928 10.8247 4.05928Z" fill="#FC6896"/>
</svg>
