<svg width="21" height="11" viewBox="0 0 21 11" fill="none" xmlns="http://www.w3.org/2000/svg">
<path d="M15.7389 2.63053C15.7389 4.08333 16.9167 5.26105 18.3695 5.26105C19.8223 5.26105 21 4.08333 21 2.63053C21 1.17773 19.8223 0 18.3695 0C16.9167 0 15.7389 1.17773 15.7389 2.63053Z" fill="#FC6896"/>
<path d="M1.72397 10.1241L6.96292 8.84204C7.58187 8.6873 8.02397 8.13467 8.02397 7.49362V5.06204H11.5387L10.964 5.79152C10.8092 5.99046 10.7208 6.23362 10.7208 6.49888V8.84204C10.7208 9.46099 11.2292 9.9473 11.8261 9.9473C12.4229 9.9473 12.9313 9.43888 12.9313 8.84204V6.87467C12.9313 6.87467 14.6334 4.75257 14.7882 4.57573C14.9429 4.37678 15.0977 4.0452 15.0977 3.66941V1.5252C15.0977 0.751516 14.4787 0.132568 13.705 0.132568L6.60924 0.132568C5.83555 0.132568 5.2166 0.751516 5.2166 1.5252V6.38836L1.06081 7.4052C0.419763 7.55994 -0.000239372 8.13467 -0.000239372 8.75362C-0.000239372 8.86415 0.0218658 8.97467 0.0439711 9.0852C0.220813 9.85888 0.972394 10.301 1.72397 10.1241Z" fill="#FC6896"/>
</svg>
