<svg width="24" height="21" viewBox="0 0 24 21" fill="none" xmlns="http://www.w3.org/2000/svg">
<path fill-rule="evenodd" clip-rule="evenodd" d="M23.1264 14.1585C23.0948 14.1412 23.0604 14.1282 23.0241 14.1204C22.1887 13.9221 21.6409 13.5568 19.5648 11.9626C16.0329 9.25044 13.9261 8.64753 11.5631 10.919C9.20021 8.64753 7.09333 9.25044 3.56146 11.9626C1.4854 13.5568 0.937622 13.9221 0.102182 14.1204C0.0659867 14.1282 0.0317065 14.1411 0 14.1585C0.717357 14.1927 1.73944 14.1718 2.38089 14.1028C2.8646 14.0508 3.31899 13.9828 4.07758 13.856C5.96118 13.5413 6.53103 13.4737 7.28172 13.5506C8.02443 13.6267 8.50896 13.8039 9.3777 14.237C9.42763 14.2619 9.42763 14.2619 9.47718 14.2866C10.349 14.7209 10.8166 14.8708 11.5631 14.8708C12.3096 14.8708 12.7772 14.7209 13.6491 14.2866C13.6986 14.2619 13.6986 14.2619 13.7486 14.237C14.6173 13.8039 15.1019 13.6267 15.8446 13.5506C16.5953 13.4737 17.1651 13.5413 19.0487 13.856C19.8073 13.9828 20.2617 14.0508 20.7454 14.1028C21.3869 14.1718 22.4091 14.1927 23.1264 14.1585ZM22.8093 14.9285C22.1257 15.3453 19.5491 17.8754 19.5865 17.843C17.2408 19.8726 14.7287 21.0003 11.5631 21.0003C8.39755 21.0003 5.88545 19.8726 3.53976 17.843C3.57714 17.8754 1.0006 15.3453 0.317008 14.9285C1.0305 14.9451 1.88283 14.9195 2.46206 14.8572C2.96437 14.8032 3.43039 14.7335 4.20265 14.6044C6.00219 14.3037 6.55167 14.2385 7.20441 14.3054C7.8339 14.3698 8.24592 14.5206 9.03915 14.9161C9.08888 14.9409 9.08888 14.9409 9.13891 14.9658C10.1068 15.4479 10.6735 15.6295 11.5631 15.6295C12.4528 15.6295 13.0195 15.4479 13.9874 14.9658C14.0374 14.9409 14.0374 14.9409 14.0871 14.9161C14.8804 14.5206 15.2924 14.3698 15.9219 14.3054C16.5746 14.2385 17.1241 14.3037 18.9236 14.6044C19.6959 14.7335 20.1619 14.8032 20.6642 14.8572C21.2435 14.9195 22.0958 14.9451 22.8093 14.9285Z" fill="#FC6896"/>
<path fill-rule="evenodd" clip-rule="evenodd" d="M12.2034 0.799367C13.2702 -0.267458 15.0019 -0.265382 16.0665 0.799155C17.1332 1.86586 17.1296 3.59888 16.0663 4.66226L11.5598 9.16875L7.05327 4.66226C5.98645 3.59543 5.98852 1.86369 7.05306 0.799155C8.11977 -0.267553 9.85278 -0.264013 10.9162 0.799367L11.5598 1.44297L12.2034 0.799367Z" fill="#FC6896"/>
</svg>
