<svg width="24" height="24" viewBox="0 0 24 24" fill="none" xmlns="http://www.w3.org/2000/svg">
<path d="M22.4997 9.18751C22.5013 9.90174 22.3613 10.6092 22.0878 11.269C21.8142 11.9287 21.4125 12.5277 20.906 13.0313L12.5341 21.5269C12.4643 21.5977 12.3811 21.654 12.2894 21.6924C12.1977 21.7308 12.0992 21.7506 11.9997 21.7506C11.9003 21.7506 11.8018 21.7308 11.7101 21.6924C11.6183 21.654 11.5352 21.5977 11.4654 21.5269L3.0935 13.0313C2.07283 12.0118 1.49893 10.6287 1.49805 9.18614C1.49717 7.74357 2.06938 6.35974 3.08881 5.33907C4.10823 4.3184 5.49137 3.7445 6.93393 3.74362C8.3765 3.74274 9.76033 4.31496 10.781 5.33438L11.9997 6.47345L13.2269 5.33063C13.9886 4.57275 14.9577 4.05751 16.012 3.84997C17.0663 3.64244 18.1584 3.7519 19.1505 4.16455C20.1426 4.57719 20.9902 5.27452 21.5863 6.1685C22.1824 7.06247 22.5002 8.11302 22.4997 9.18751Z" fill="#FC6896"/>
</svg>
