<svg width="24" height="24" viewBox="0 0 24 24" fill="none" xmlns="http://www.w3.org/2000/svg">
<path d="M10.6206 5.18531C9.58014 4.18627 8.18545 3.64146 6.74333 3.67074C5.3012 3.70001 3.92977 4.30097 2.93073 5.3414C1.9317 6.38184 1.38689 7.77653 1.41616 9.21865C1.44543 10.6608 2.04639 12.0322 3.08683 13.0312L11.4653 21.5306C11.5351 21.6015 11.6182 21.6578 11.71 21.6962C11.8017 21.7346 11.9002 21.7544 11.9996 21.7544C12.0991 21.7544 12.1976 21.7346 12.2893 21.6962C12.381 21.6578 12.4642 21.6015 12.534 21.5306L20.9059 13.0312C21.9266 12.0118 22.5005 10.6287 22.5013 9.18612C22.5022 7.74356 21.93 6.35973 20.9106 5.33906C19.8912 4.31839 18.508 3.74449 17.0655 3.74361C15.6229 3.74273 14.2391 4.31495 13.2184 5.33437L10.9309 7.49062L13.4059 9.9675C13.4756 10.0372 13.5309 10.1199 13.5687 10.2109C13.6064 10.302 13.6259 10.3996 13.6259 10.4981C13.6259 10.5967 13.6064 10.6943 13.5687 10.7853C13.5309 10.8764 13.4756 10.9591 13.4059 11.0287L11.4662 12.9684C11.3965 13.0381 11.3137 13.0933 11.2226 13.1309C11.1315 13.1685 11.0339 13.1878 10.9354 13.1878C10.8368 13.1877 10.7393 13.1682 10.6483 13.1304C10.5572 13.0926 10.4746 13.0372 10.405 12.9675C10.3353 12.8978 10.2801 12.815 10.2425 12.7239C10.2049 12.6328 10.1855 12.5352 10.1856 12.4367C10.1857 12.3381 10.2052 12.2406 10.243 12.1496C10.2808 12.0585 10.3361 11.9759 10.4059 11.9062L11.8121 10.5L9.32776 8.00812C9.25635 7.93677 9.20008 7.85173 9.16232 7.75811C9.12455 7.66448 9.10608 7.5642 9.10801 7.46326C9.10994 7.36233 9.13222 7.26282 9.17352 7.17071C9.21483 7.07859 9.27431 6.99576 9.34839 6.92718L10.6187 5.72906C10.6556 5.69403 10.6849 5.65186 10.705 5.60512C10.7251 5.55838 10.7354 5.50805 10.7354 5.45718C10.7354 5.40632 10.7251 5.35599 10.705 5.30925C10.6849 5.26251 10.6556 5.22034 10.6187 5.18531H10.6206Z" fill="#FC6896"/>
</svg>
