<svg width="24" height="24" viewBox="0 0 24 24" fill="none" xmlns="http://www.w3.org/2000/svg">
<path d="M4.62723 6.75353C3.69987 7.43349 3.03731 8.4143 2.7527 9.52846C2.40137 8.99767 2.16582 8.39881 2.06139 7.7709C1.95696 7.14299 1.98601 6.50012 2.14663 5.88419C2.30726 5.26826 2.59585 4.69308 2.99362 4.19613C3.39139 3.69918 3.8894 3.29162 4.4552 3C4.13264 3.57996 3.9779 4.23826 4.00828 4.90119C4.03866 5.56412 4.25298 6.2055 4.62723 6.75353Z" fill="#FC6896"/>
<path d="M22.1058 9.73178C21.8653 8.5916 21.2329 7.57175 20.3184 6.8496C20.7182 6.29575 20.9516 5.63929 20.9911 4.95736C21.0307 4.27544 20.8748 3.59638 20.5418 3C21.1265 3.30083 21.6388 3.72534 22.043 4.24404C22.4472 4.76275 22.7337 5.36322 22.8825 6.00376C23.0313 6.6443 23.0389 7.30955 22.9048 7.95333C22.7706 8.5971 22.498 9.20397 22.1058 9.73178Z" fill="#FC6896"/>
<path d="M12.5207 18.6348C13.716 18.6348 14.4154 19.1285 15.1795 19.7161C14.3091 20.117 13.3605 20.3192 12.4023 20.3082C11.5541 20.3233 10.7117 20.1652 9.92676 19.8435C10.711 18.9766 11.2114 18.6348 12.5207 18.6348Z" fill="#FC6896"/>
<path d="M8.58704 19.2L8.28542 19.544C8.25414 19.5306 8.25414 19.5775 8.58704 19.2Z" fill="#FC6896"/>
<path d="M8.71582 19.06C8.86775 18.8902 9.01968 18.7204 9.18278 18.5573C9.01968 18.7271 8.86775 18.8924 8.71582 19.06Z" fill="#FC6896"/>
<path d="M16.9539 19.2724C16.5808 19.0021 16.6143 19.0356 16.9539 19.2724V19.2724Z" fill="#FC6896"/>
<path d="M20.4886 15.1054C19.5715 16.538 18.3737 17.7701 16.9674 18.7271C15.4526 17.5496 14.4248 16.7632 12.4721 16.7632C10.1887 16.7632 9.23246 17.8222 8.39015 18.7583C8.36557 18.7829 8.24269 18.9214 8.20694 18.9617C6.643 17.9766 5.31438 16.6601 4.31489 15.1054C2.02255 11.4501 2.89167 7.83289 5.86545 6.55491C8.21141 5.54503 10.3853 7.42403 12.3984 9.732C14.4092 7.42403 16.5831 5.54726 18.938 6.55491C21.9118 7.82843 22.7764 11.4501 20.4886 15.1054Z" fill="#FC6896"/>
<path d="M12.4336 9.68688L12.4604 9.65784C12.4358 9.75391 12.4515 9.74497 12.4336 9.68688Z" fill="#FC6896"/>
<path d="M19.2165 20.9607C15.9188 20.9607 15.4741 18.2148 12.5249 18.188C9.66958 18.15 9.74331 20.2279 7.46885 21.3383C6.28694 21.908 4.78776 22.127 3.75107 21.3383C3.44683 21.1011 3.21724 20.7814 3.08968 20.4173C2.96212 20.0533 2.94197 19.6602 3.03164 19.285C3.27071 18.0204 4.39453 17.3926 5.26589 17.0887C5.51612 17.3636 5.782 17.6294 6.05234 17.8797C5.15864 18.083 4.15323 18.5678 3.98343 19.466C3.92524 19.6638 3.92778 19.8746 3.99072 20.071C4.05366 20.2673 4.1741 20.4403 4.33644 20.5675C4.8168 20.9361 5.83785 21.0456 7.03988 20.4602C8.55916 19.7207 8.96579 18.2506 10.5677 17.5557C11.2963 17.2678 12.0821 17.1546 12.8623 17.225C15.959 17.4306 16.4371 19.9441 19.1182 19.9888L19.2165 20.9607Z" fill="#FC6896"/>
<path d="M19.7217 21.6316L19.4983 18.984C19.4932 18.9251 19.5042 18.8659 19.5301 18.8126C19.5559 18.7594 19.5956 18.7142 19.6451 18.6817C19.6945 18.6492 19.7518 18.6306 19.8109 18.628C19.87 18.6254 19.9287 18.6388 19.9809 18.6668L22.128 19.8174C22.1764 19.8431 22.2176 19.8806 22.2478 19.9264C22.278 19.9722 22.2963 20.0248 22.301 20.0794C22.3057 20.1341 22.2966 20.189 22.2745 20.2393C22.2525 20.2895 22.2182 20.3334 22.1749 20.367L20.2534 21.8617C20.2069 21.8987 20.1511 21.9224 20.0921 21.9302C20.0332 21.9381 19.9732 21.9297 19.9186 21.9061C19.864 21.8824 19.8168 21.8444 19.7821 21.7961C19.7475 21.7477 19.7266 21.6909 19.7217 21.6316Z" fill="#FC6896"/>
</svg>
