<svg width="200" height="34" viewBox="0 0 200 34" fill="none" xmlns="http://www.w3.org/2000/svg">
<g clip-path="url(#clip0_0_20)">
<mask id="mask0_0_20" style="mask-type:luminance" maskUnits="userSpaceOnUse" x="0" y="0" width="200" height="34">
<path d="M199.747 0H0V33.8574H199.747V0Z" fill="white"/>
</mask>
<g mask="url(#mask0_0_20)">
<path d="M46.9141 24.5184L48.5871 20.921C50.1311 21.9163 52.4827 22.5908 54.6064 22.5908C56.9251 22.5908 57.7932 21.9794 57.7932 21.017C57.7932 18.19 47.3316 21.08 47.3316 14.1731C47.3316 10.8965 50.2932 8.58228 55.3481 8.58228C57.73 8.58228 60.3701 9.12792 62.013 10.0931L60.3399 13.6603C58.6338 12.6952 56.9278 12.3744 55.3509 12.3744C53.0981 12.3744 52.1311 13.0818 52.1311 13.9811C52.1311 16.937 62.5926 14.0771 62.5926 20.8881C62.5926 24.1016 59.5981 26.3829 54.4168 26.3829C51.4882 26.3829 48.5267 25.5795 46.9168 24.5184H46.9141Z" fill="white"/>
<path d="M93.0738 8.83984V18.3818C93.0738 23.4571 90.2084 26.3827 85.0271 26.3827C82.6452 26.3827 80.6809 25.7411 79.3293 23.9397C78.0106 25.6753 76.1095 26.3827 73.5985 26.3827C68.3842 26.3827 65.582 23.4598 65.582 18.3818V8.83984H70.604V17.9952C70.604 20.855 71.5381 22.1711 73.6617 22.1711C75.7853 22.1711 76.8155 20.855 76.8155 17.9952V8.83984H81.8375V17.9952C81.8375 20.855 82.8677 22.1711 84.9914 22.1711C87.115 22.1711 88.0491 20.855 88.0491 17.9952V8.83984H93.071H93.0738Z" fill="white"/>
<path d="M97.5781 8.83984H102.6V26.125H97.5781V8.83984Z" fill="white"/>
<path d="M126.136 17.4826C126.136 22.9116 122.37 26.3829 117.51 26.3829C115.353 26.3829 113.581 25.7084 112.295 24.2936V32.3576H107.273V8.84002H112.07V10.8307C113.326 9.31986 115.194 8.58228 117.51 8.58228C122.37 8.58228 126.136 12.0536 126.136 17.4826ZM121.048 17.4826C121.048 14.4939 119.15 12.6952 116.639 12.6952C114.128 12.6952 112.229 14.4939 112.229 17.4826C112.229 20.4713 114.128 22.27 116.639 22.27C119.15 22.27 121.048 20.4713 121.048 17.4826Z" fill="white"/>
<path d="M142.549 20.6961L145.219 23.5888C143.609 25.4204 141.194 26.3829 138.073 26.3829C132.087 26.3829 128.192 22.6237 128.192 17.4825C128.192 12.3414 132.12 8.58221 137.464 8.58221C142.356 8.58221 146.381 11.7958 146.411 17.3208L133.598 19.794C134.34 21.4967 135.947 22.3632 138.203 22.3632C140.038 22.3632 141.356 21.8175 142.549 20.6933V20.6961ZM133.117 16.9698L141.551 15.3301C141.068 13.5643 139.557 12.3743 137.464 12.3743C134.953 12.3743 133.214 14.0441 133.117 16.9698Z" fill="white"/>
<path d="M167.235 8.8399V23.2323C167.235 29.6567 163.855 32.6152 157.803 32.6152C154.616 32.6152 151.526 31.8118 149.531 30.238L151.526 26.6405C152.974 27.8278 155.226 28.5681 157.386 28.5681C160.765 28.5681 162.215 26.9943 162.215 23.8767V23.2981C160.897 24.6143 159.092 25.2888 157.097 25.2888C152.751 25.2888 149.693 22.8786 149.693 17.5126V8.83716H154.715V16.7723C154.715 19.6952 156.004 20.9812 158.224 20.9812C160.443 20.9812 162.215 19.5033 162.215 16.3226V8.83716H167.237L167.235 8.8399Z" fill="white"/>
<path d="M189.483 8.83977V26.1249H184.686V24.1343C183.43 25.6451 181.595 26.3827 179.277 26.3827C174.384 26.3827 170.617 22.9114 170.617 17.4824C170.617 12.0533 174.384 8.58203 179.277 8.58203C181.4 8.58203 183.205 9.25655 184.461 10.6714V8.83977H189.483ZM184.557 17.4824C184.557 14.4936 182.625 12.6949 180.147 12.6949C177.669 12.6949 175.705 14.4936 175.705 17.4824C175.705 20.4711 177.636 22.2698 180.147 22.2698C182.658 22.2698 184.557 20.4711 184.557 17.4824Z" fill="url(#paint0_linear_0_20)"/>
<path d="M193.5 3.63583C193.5 2.06196 194.755 0.841797 196.624 0.841797C198.492 0.841797 199.747 1.99889 199.747 3.53986C199.747 5.2097 198.492 6.42986 196.624 6.42986C194.755 6.42986 193.5 5.2097 193.5 3.63583ZM194.113 8.84002H199.135V26.1252H194.113V8.84002Z" fill="url(#paint1_linear_0_20)"/>
<path d="M36.82 3.45203C33.7047 0.200094 29.1195 -0.754099 25.1415 0.58945C23.5316 1.13235 22.0948 2.09477 20.8915 3.29574L16.2321 7.94606C15.6223 8.55477 15.2321 9.36638 15.2184 10.2274C15.2019 11.272 14.7871 12.3112 13.9657 13.0954C12.4327 14.5596 9.94643 14.5815 8.39148 13.142C6.68819 11.5682 6.64972 8.91122 8.2761 7.288C9.03983 6.52574 10.0316 6.1309 11.0343 6.10348C11.7212 6.08429 12.386 5.843 12.8723 5.35768L13.0343 5.1959C14.9657 3.27106 13.5755 -0.0768421 10.8475 0.00541611C8.09753 0.0876741 5.375 1.17622 3.2761 3.26832C-1.09203 7.628 -1.09203 14.6995 3.2761 19.0591L4.13874 19.9201L6.61401 22.3906C8.83928 24.6115 12.4464 24.6115 14.6717 22.3906L23.897 13.1832C24.6113 12.4703 25.0096 11.5161 25.0728 10.5098C25.1332 9.53364 25.5453 8.57671 26.3091 7.84187C27.8393 6.36945 30.3338 6.34477 31.8915 7.78703C33.5948 9.3609 33.6332 12.0178 32.0069 13.6411C31.3338 14.3128 30.4849 14.6994 29.6058 14.8009C28.647 14.9133 27.7404 15.2862 27.0591 15.969L16.7871 26.2211C15.0371 27.9677 15.0371 30.8028 16.7871 32.5494C18.5371 34.2961 21.3777 34.2961 23.1277 32.5494L35.7788 19.9228L36.4821 19.2209C40.8063 14.9024 41.0481 7.86655 36.82 3.45477V3.45203Z" fill="url(#paint2_linear_0_20)"/>
<path d="M29.0429 12.9392C30.1476 12.9392 31.0429 12.0455 31.0429 10.943C31.0429 9.84061 30.1476 8.9469 29.0429 8.9469C27.9383 8.9469 27.043 9.84061 27.043 10.943C27.043 12.0455 27.9383 12.9392 29.0429 12.9392Z" fill="url(#paint3_linear_0_20)"/>
<path d="M11.3047 12.2535C12.4092 12.2535 13.3047 11.3598 13.3047 10.2574C13.3047 9.15494 12.4092 8.26123 11.3047 8.26123C10.2001 8.26123 9.30469 9.15494 9.30469 10.2574C9.30469 11.3598 10.2001 12.2535 11.3047 12.2535Z" fill="url(#paint4_linear_0_20)"/>
<path d="M30.0658 22.3384C30.0658 22.3384 29.3735 28.8614 34.0549 31.6939C34.8763 32.1929 34.6483 33.4295 33.7005 33.605C30.1647 34.2576 24.4862 34.1095 21.8516 27.5371" fill="url(#paint5_linear_0_20)"/>
<path d="M100.09 6.85202C101.869 6.85202 103.312 5.41203 103.312 3.63572C103.312 1.85942 101.869 0.419434 100.09 0.419434C98.31 0.419434 96.8672 1.85942 96.8672 3.63572C96.8672 5.41203 98.31 6.85202 100.09 6.85202Z" fill="url(#paint6_linear_0_20)"/>
</g>
</g>
<defs>
<linearGradient id="paint0_linear_0_20" x1="173.628" y1="28.9738" x2="190.243" y2="6.15218" gradientUnits="userSpaceOnUse">
<stop stop-color="#8350CB"/>
<stop offset="1" stop-color="#FE6283"/>
</linearGradient>
<linearGradient id="paint1_linear_0_20" x1="181.497" y1="34.7074" x2="198.112" y2="11.8858" gradientUnits="userSpaceOnUse">
<stop stop-color="#8350CB"/>
<stop offset="1" stop-color="#FE6283"/>
</linearGradient>
<linearGradient id="paint2_linear_0_20" x1="3.01786" y1="29.229" x2="28.9943" y2="1.41391" gradientUnits="userSpaceOnUse">
<stop stop-color="#8350CB"/>
<stop offset="1" stop-color="#FE6283"/>
</linearGradient>
<linearGradient id="paint3_linear_0_20" x1="7.75451" y1="33.6517" x2="33.7282" y2="5.83668" gradientUnits="userSpaceOnUse">
<stop stop-color="#8350CB"/>
<stop offset="1" stop-color="#FE6283"/>
</linearGradient>
<linearGradient id="paint4_linear_0_20" x1="-2.04696" y1="24.499" x2="23.9295" y2="-3.31608" gradientUnits="userSpaceOnUse">
<stop stop-color="#8350CB"/>
<stop offset="1" stop-color="#FE6283"/>
</linearGradient>
<linearGradient id="paint5_linear_0_20" x1="17.2774" y1="41.9268" x2="43.1798" y2="14.1859" gradientUnits="userSpaceOnUse">
<stop stop-color="#8350CB"/>
<stop offset="1" stop-color="#FE6283"/>
</linearGradient>
<linearGradient id="paint6_linear_0_20" x1="91.5155" y1="16.6983" x2="107.352" y2="-7.52196" gradientUnits="userSpaceOnUse">
<stop stop-color="#8350CB"/>
<stop offset="1" stop-color="#FE6283"/>
</linearGradient>
<clipPath id="clip0_0_20">
<rect width="200" height="34" fill="white"/>
</clipPath>
</defs>
</svg>
