<svg width="24" height="24" viewBox="0 0 24 24" fill="none" xmlns="http://www.w3.org/2000/svg">
<path d="M16.5003 20.25C16.5003 20.4489 16.4213 20.6397 16.2806 20.7803C16.14 20.921 15.9492 21 15.7503 21H2.25029C2.05138 21 1.86062 20.921 1.71996 20.7803C1.57931 20.6397 1.50029 20.4489 1.50029 20.25C1.50029 20.0511 1.57931 19.8603 1.71996 19.7197C1.86062 19.579 2.05138 19.5 2.25029 19.5H15.7503C15.9492 19.5 16.14 19.579 16.2806 19.7197C16.4213 19.8603 16.5003 20.0511 16.5003 20.25ZM23.0919 8.13375L21.3444 5.89406L21.3331 5.88C20.768 5.18393 19.9713 4.71449 19.0885 4.5575C18.2058 4.40051 17.2961 4.56645 16.5256 5.025L11.6909 7.91062L6.63404 6.05062C6.46504 5.9876 6.27898 5.9876 6.10998 6.05062L5.43779 6.30656L5.40779 6.31875C5.17783 6.41746 4.97622 6.57214 4.82133 6.76869C4.66643 6.96524 4.56317 7.19743 4.52096 7.4441C4.47874 7.69076 4.49892 7.94407 4.57964 8.18095C4.66035 8.41783 4.79906 8.63074 4.98311 8.80031L7.03154 10.7869L5.14061 11.9306L2.49123 11.0362C2.30372 10.9731 2.09885 10.9865 1.92123 11.0737L1.63998 11.2116C1.41497 11.3121 1.21819 11.4666 1.06706 11.6612C0.915935 11.8559 0.815105 12.0849 0.77349 12.3278C0.731876 12.5707 0.750759 12.8201 0.828471 13.054C0.906182 13.2879 1.04033 13.499 1.21904 13.6687L4.59404 16.9753L4.60529 16.9866C5.29662 17.64 6.21152 18.0045 7.16279 18.0056C7.8306 18.0045 8.48611 17.8259 9.06217 17.4881L22.8819 9.23812C22.973 9.18363 23.0516 9.11038 23.1124 9.02323C23.1731 8.93608 23.2147 8.83702 23.2343 8.73261C23.2539 8.6282 23.251 8.52082 23.226 8.41758C23.201 8.31433 23.1543 8.21759 23.089 8.13375H23.0919Z" fill="#E9F2FF"/>
</svg>
