<svg width="24" height="24" viewBox="0 0 24 24" fill="none" xmlns="http://www.w3.org/2000/svg">
<path d="M23.25 15C23.2488 16.1931 22.7743 17.337 21.9306 18.1806C21.087 19.0242 19.9431 19.4988 18.75 19.5H14.25C12.5953 19.5 11.25 18.1172 11.25 16.4166C11.25 14.7159 12.5953 13.3331 14.25 13.3331C14.3546 13.3331 14.4591 13.3387 14.5631 13.35C14.9472 12.375 15.6595 11.5646 16.5771 11.0586C17.4948 10.5526 18.5602 10.3828 19.5897 10.5783C20.6192 10.7738 21.5482 11.3225 22.2164 12.1298C22.8846 12.937 23.2502 13.9521 23.25 15ZM10.5 6.74999C12.6489 6.74567 14.7139 7.58411 16.2516 9.0853C16.3951 9.21899 16.5853 9.29113 16.7814 9.28626C16.9774 9.28139 17.1638 9.19991 17.3005 9.05927C17.4372 8.91863 17.5134 8.73002 17.5127 8.53388C17.5121 8.33774 17.4346 8.14968 17.2969 8.00999C15.9227 6.67384 14.1852 5.77235 12.3015 5.41821C10.4178 5.06407 8.4715 5.27299 6.70589 6.01885C4.94028 6.7647 3.43366 8.01442 2.37436 9.61178C1.31506 11.2091 0.750069 13.0833 0.75 15V16.5C0.75 16.6989 0.829018 16.8897 0.96967 17.0303C1.11032 17.171 1.30109 17.25 1.5 17.25C1.69891 17.25 1.88968 17.171 2.03033 17.0303C2.17098 16.8897 2.25 16.6989 2.25 16.5V15C2.25248 12.8127 3.12247 10.7157 4.66911 9.1691C6.21575 7.62246 8.31273 6.75247 10.5 6.74999ZM10.5 9.74999C11.6175 9.74692 12.7064 10.1032 13.6059 10.7662C13.6842 10.8336 13.7755 10.8841 13.8742 10.9146C13.9728 10.945 14.0767 10.9548 14.1793 10.9432C14.2819 10.9316 14.381 10.899 14.4704 10.8474C14.5598 10.7957 14.6376 10.7262 14.6989 10.6431C14.7602 10.56 14.8037 10.4651 14.8266 10.3645C14.8495 10.2638 14.8514 10.1595 14.8322 10.058C14.8129 9.95657 14.7729 9.8602 14.7147 9.77493C14.6564 9.68967 14.5812 9.61734 14.4938 9.56249C13.4882 8.82454 12.2979 8.37961 11.0549 8.27707C9.81188 8.17454 8.56475 8.41841 7.45191 8.98163C6.33907 9.54484 5.40404 10.4054 4.75058 11.4677C4.09712 12.5301 3.75078 13.7527 3.75 15V16.5C3.75 16.6989 3.82902 16.8897 3.96967 17.0303C4.11032 17.171 4.30109 17.25 4.5 17.25C4.69891 17.25 4.88968 17.171 5.03033 17.0303C5.17098 16.8897 5.25 16.6989 5.25 16.5V15C5.25149 13.6081 5.80509 12.2736 6.78933 11.2893C7.77358 10.3051 9.10807 9.75148 10.5 9.74999ZM11.9259 12.2541C11.9487 12.1582 11.9523 12.0588 11.9366 11.9616C11.9209 11.8643 11.8862 11.7711 11.8345 11.6873C11.7828 11.6035 11.7151 11.5306 11.6352 11.473C11.5553 11.4153 11.4649 11.3739 11.3691 11.3512C10.818 11.22 10.2445 11.2152 9.69135 11.3374C9.13824 11.4595 8.61999 11.7054 8.1755 12.0565C7.73102 12.4076 7.37185 12.8549 7.12496 13.3647C6.87807 13.8745 6.74987 14.4336 6.75 15V16.5C6.75 16.6989 6.82902 16.8897 6.96967 17.0303C7.11032 17.171 7.30109 17.25 7.5 17.25C7.69891 17.25 7.88968 17.171 8.03033 17.0303C8.17098 16.8897 8.25 16.6989 8.25 16.5V15C8.24992 14.6601 8.32687 14.3245 8.47506 14.0186C8.62325 13.7127 8.83883 13.4443 9.10561 13.2337C9.37239 13.023 9.68343 12.8755 10.0154 12.8023C10.3473 12.7291 10.6915 12.732 11.0222 12.8109C11.1181 12.8338 11.2176 12.8375 11.3149 12.8219C11.4123 12.8063 11.5056 12.7716 11.5895 12.7199C11.6735 12.6682 11.7464 12.6004 11.8041 12.5205C11.8618 12.4405 11.9032 12.35 11.9259 12.2541Z" fill="#E9F2FF"/>
</svg>
