<svg width="24" height="24" viewBox="0 0 24 24" fill="none" xmlns="http://www.w3.org/2000/svg">
<path d="M2.32634 10.8197C2.58816 8.65746 3.5671 6.64536 5.10677 5.10484C6.64644 3.56431 8.658 2.58426 10.8201 2.32125C10.8713 2.31514 10.9232 2.31965 10.9726 2.33451C11.0219 2.34936 11.0677 2.37424 11.1071 2.40758C11.1464 2.44093 11.1784 2.48202 11.2011 2.52831C11.2239 2.57459 11.2368 2.62506 11.2392 2.67657C11.2855 3.81289 11.096 4.9465 10.6824 6.00592C10.2689 7.06534 9.64039 8.02761 8.83649 8.83204C8.03258 9.63648 7.07073 10.2656 6.01158 10.6799C4.95243 11.0941 3.81894 11.2844 2.68259 11.2388C2.631 11.2365 2.58043 11.2237 2.53404 11.201C2.48764 11.1783 2.44643 11.1463 2.41299 11.107C2.37954 11.0676 2.35459 11.0218 2.33968 10.9724C2.32476 10.9229 2.32022 10.871 2.32634 10.8197ZM21.3145 12.7603C21.2095 12.7603 21.1054 12.7538 21.0004 12.7538C19.8899 12.7523 18.7906 12.9755 17.7686 13.4099C16.7466 13.8443 15.823 14.4809 15.0533 15.2815C14.2837 16.082 13.6839 17.03 13.2901 18.0683C12.8963 19.1066 12.7165 20.2139 12.7617 21.3234C12.764 21.3749 12.7769 21.4254 12.7997 21.4717C12.8224 21.518 12.8544 21.5591 12.8937 21.5924C12.9331 21.6258 12.9789 21.6506 13.0282 21.6655C13.0776 21.6804 13.1295 21.6849 13.1807 21.6788C15.3429 21.4157 17.3546 20.4355 18.8943 18.8948C20.434 17.3541 21.4128 15.3418 21.6745 13.1794C21.6806 13.1278 21.6759 13.0755 21.6608 13.0258C21.6457 12.9761 21.6204 12.9301 21.5865 12.8908C21.5527 12.8514 21.511 12.8194 21.4642 12.797C21.4174 12.7745 21.3664 12.762 21.3145 12.7603ZM14.106 14.1056C15.0093 13.1975 16.0838 12.4775 17.2672 11.9873C18.4506 11.4971 19.7195 11.2465 21.0004 11.25C21.0942 11.25 21.1935 11.25 21.2901 11.25C21.3439 11.2519 21.3974 11.2423 21.4471 11.2217C21.4968 11.2011 21.5415 11.17 21.5781 11.1306C21.6148 11.0912 21.6425 11.0444 21.6595 10.9934C21.6764 10.9423 21.6822 10.8882 21.6763 10.8347C21.4179 8.66454 20.4371 6.64434 18.8919 5.09887C17.3466 3.55341 15.3265 2.57247 13.1563 2.31375C13.1029 2.30794 13.0487 2.31369 12.9977 2.33064C12.9466 2.34758 12.8998 2.37532 12.8604 2.41196C12.821 2.44859 12.79 2.49328 12.7694 2.54298C12.7488 2.59269 12.7391 2.64624 12.741 2.7C12.7837 4.02951 12.5531 5.35362 12.0635 6.59044C11.5739 7.82726 10.8358 8.95049 9.89478 9.89063C8.99177 10.7995 7.91746 11.5202 6.73403 12.011C5.5506 12.5018 4.28157 12.753 3.0004 12.75C2.90665 12.75 2.80728 12.75 2.71071 12.75C2.65695 12.7481 2.6034 12.7577 2.5537 12.7783C2.50399 12.7989 2.45931 12.83 2.42267 12.8694C2.38603 12.9088 2.35829 12.9556 2.34135 13.0067C2.32441 13.0577 2.31865 13.1118 2.32446 13.1653C2.58294 15.3355 3.56366 17.3557 5.10895 18.9011C6.65425 20.4466 8.67434 21.4275 10.8445 21.6863C10.8979 21.6921 10.9521 21.6863 11.0031 21.6694C11.0542 21.6524 11.101 21.6247 11.1404 21.5881C11.1798 21.5514 11.2108 21.5067 11.2314 21.457C11.252 21.4073 11.2617 21.3538 11.2598 21.3C11.2166 19.9699 11.447 18.645 11.9366 17.4075C12.4261 16.17 13.1645 15.0462 14.106 14.1056Z" fill="#FC6896"/>
</svg>
